<svg width="25" height="25" viewBox="0 0 25 25" fill="none" xmlns="http://www.w3.org/2000/svg">
<path d="M22.9166 25L17.4478 19.7917L18.1041 21.875H4.68742C3.99675 21.875 3.33437 21.6006 2.84599 21.1122C2.35762 20.6239 2.08325 19.9615 2.08325 19.2708V3.64582C2.08325 2.95516 2.35762 2.29278 2.84599 1.8044C3.33437 1.31602 3.99675 1.04166 4.68742 1.04166H20.3124C21.0031 1.04166 21.6655 1.31602 22.1538 1.8044C22.6422 2.29278 22.9166 2.95516 22.9166 3.64582V25ZM12.4999 7.08332C9.70825 7.08332 7.74992 8.28124 7.74992 8.28124C8.82284 7.32291 10.6978 6.77082 10.6978 6.77082L10.5208 6.59374C8.76034 6.62499 7.16659 7.84374 7.16659 7.84374C5.37492 11.5833 5.4895 14.8125 5.4895 14.8125C6.94784 16.6979 9.1145 16.5625 9.1145 16.5625L9.85409 15.625C8.552 15.3437 7.72909 14.1875 7.72909 14.1875C7.72909 14.1875 9.68742 15.5208 12.4999 15.5208C15.3124 15.5208 17.2708 14.1875 17.2708 14.1875C17.2708 14.1875 16.4478 15.3437 15.1458 15.625L15.8853 16.5625C15.8853 16.5625 18.052 16.6979 19.5103 14.8125C19.5103 14.8125 19.6249 11.5833 17.8333 7.84374C17.8333 7.84374 16.2395 6.62499 14.4791 6.59374L14.302 6.77082C14.302 6.77082 16.177 7.32291 17.2499 8.28124C17.2499 8.28124 15.2916 7.08332 12.4999 7.08332M10.3437 11.0312C11.0208 11.0312 11.5728 11.625 11.5624 12.3542C11.5624 13.0729 11.0208 13.6771 10.3437 13.6771C9.677 13.6771 9.13534 13.0729 9.13534 12.3542C9.13534 11.625 9.66659 11.0312 10.3437 11.0312ZM14.6874 11.0312C15.3645 11.0312 15.9062 11.625 15.9062 12.3542C15.9062 13.0729 15.3645 13.6771 14.6874 13.6771C14.0208 13.6771 13.4791 13.0729 13.4791 12.3542C13.4791 11.625 14.0103 11.0312 14.6874 11.0312Z" fill="white"/>
</svg>
