<svg width="25" height="25" viewBox="0 0 25 25" fill="none" xmlns="http://www.w3.org/2000/svg">
<path d="M12.4999 2.08334C11.132 2.08334 9.77744 2.35278 8.51363 2.87627C7.24982 3.39975 6.1015 4.16704 5.13422 5.13431C3.18072 7.08782 2.08325 9.73734 2.08325 12.5C2.08325 17.1042 5.07284 21.0104 9.20825 22.3958C9.72909 22.4792 9.89575 22.1563 9.89575 21.875V20.1146C7.01034 20.7396 6.39575 18.7188 6.39575 18.7188C5.91658 17.5104 5.2395 17.1875 5.2395 17.1875C4.29159 16.5417 5.31242 16.5625 5.31242 16.5625C6.35409 16.6354 6.90617 17.6354 6.90617 17.6354C7.81242 19.2188 9.34367 18.75 9.93742 18.5C10.0312 17.8229 10.302 17.3646 10.5937 17.1042C8.28117 16.8438 5.85409 15.9479 5.85409 11.9792C5.85409 10.8229 6.24992 9.89584 6.927 9.15626C6.82284 8.89584 6.45825 7.81251 7.03117 6.40626C7.03117 6.40626 7.90617 6.12501 9.89575 7.46876C10.7187 7.23959 11.6145 7.12501 12.4999 7.12501C13.3853 7.12501 14.2812 7.23959 15.1041 7.46876C17.0937 6.12501 17.9687 6.40626 17.9687 6.40626C18.5416 7.81251 18.177 8.89584 18.0728 9.15626C18.7499 9.89584 19.1458 10.8229 19.1458 11.9792C19.1458 15.9583 16.7083 16.8333 14.3853 17.0938C14.7603 17.4167 15.1041 18.0521 15.1041 19.0208V21.875C15.1041 22.1563 15.2708 22.4896 15.802 22.3958C19.9374 21 22.9166 17.1042 22.9166 12.5C22.9166 11.1321 22.6472 9.77753 22.1237 8.51372C21.6002 7.24992 20.8329 6.10159 19.8656 5.13431C18.8983 4.16704 17.75 3.39975 16.4862 2.87627C15.2224 2.35278 13.8679 2.08334 12.4999 2.08334V2.08334Z" fill="white"/>
</svg>
