<svg width="25" height="25" viewBox="0 0 25 25" fill="none" xmlns="http://www.w3.org/2000/svg">
<path d="M15.1041 16.0521C15.1874 16.1458 15.1874 16.3438 15.1041 16.4583C14.3437 17.1875 12.927 17.25 12.4999 17.25C12.0937 17.25 10.677 17.1875 9.93742 16.4583C9.83325 16.3438 9.83325 16.1458 9.93742 16.0521C10.052 15.9479 10.2291 15.9479 10.3333 16.0521C10.8124 16.5313 11.802 16.6667 12.4999 16.6667C13.2187 16.6667 14.2291 16.5313 14.6874 16.0521C14.802 15.9479 14.9791 15.9479 15.1041 16.0521M11.1978 13.5833C11.1978 12.9896 10.7083 12.5 10.1145 12.5C9.52075 12.5 9.03117 12.9896 9.03117 13.5833C9.03117 14.1771 9.52075 14.6771 10.1145 14.6667C10.7083 14.6667 11.1978 14.1771 11.1978 13.5833ZM14.8853 12.5C14.2916 12.5 13.802 13.0208 13.802 13.5938C13.802 14.1667 14.2916 14.6771 14.8853 14.6771C15.4791 14.6771 15.9687 14.1771 15.9687 13.5938C15.9687 13.0208 15.4791 12.5 14.8853 12.5ZM22.9166 12.5C22.9166 18.2292 18.2291 22.9167 12.4999 22.9167C6.77075 22.9167 2.08325 18.2292 2.08325 12.5C2.08325 6.77084 6.77075 2.08334 12.4999 2.08334C18.2291 2.08334 22.9166 6.77084 22.9166 12.5ZM19.4478 12.5C19.4478 11.6563 18.7499 10.9792 17.9374 10.9792C17.5208 10.9792 17.1458 11.1458 16.8749 11.4063C15.8333 10.6563 14.4062 10.1771 12.8124 10.1146L13.5103 6.85418L15.7708 7.34376C15.7916 7.91668 16.2708 8.37501 16.8541 8.37501C17.4478 8.37501 17.9374 7.88543 17.9374 7.29168C17.9374 6.69793 17.4478 6.20834 16.8541 6.20834C16.427 6.20834 16.052 6.45834 15.8853 6.82293L13.3541 6.28126C13.2812 6.25001 13.2083 6.28126 13.1562 6.32293C13.0937 6.36459 13.0624 6.42709 13.052 6.50001L12.2812 10.125C10.6666 10.1771 9.20825 10.6563 8.14575 11.4167C7.87492 11.1563 7.49992 11 7.09367 11C6.24992 11 5.57284 11.6771 5.57284 12.5C5.57284 13.1354 5.94784 13.6563 6.46867 13.8958C6.44784 14.0625 6.43742 14.1875 6.43742 14.3542C6.43742 16.6667 9.15617 18.5938 12.4999 18.5938C15.8645 18.5938 18.5937 16.6979 18.5937 14.3542C18.5937 14.2083 18.5833 14.0625 18.552 13.8958C19.0728 13.6563 19.4478 13.125 19.4478 12.5V12.5Z" fill="white"/>
</svg>
