<svg width="25" height="25" viewBox="0 0 25 25" fill="none" xmlns="http://www.w3.org/2000/svg">
<path d="M23.3959 6.24999C22.5938 6.61457 21.7292 6.85416 20.8334 6.96874C21.7501 6.41666 22.4584 5.54166 22.7917 4.48957C21.9272 5.01041 20.9688 5.37499 19.9584 5.58332C19.1355 4.68749 17.9792 4.16666 16.6667 4.16666C14.2188 4.16666 12.2188 6.16666 12.2188 8.63541C12.2188 8.98957 12.2605 9.33332 12.3334 9.65624C8.62508 9.46874 5.323 7.68749 3.12508 4.98957C2.73966 5.64582 2.52091 6.41666 2.52091 7.22916C2.52091 8.78124 3.30216 10.1562 4.5105 10.9375C3.77091 10.9375 3.08341 10.7292 2.47925 10.4167V10.4479C2.47925 12.6146 4.02092 14.4271 6.06258 14.8333C5.40709 15.0127 4.71893 15.0377 4.05217 14.9062C4.33509 15.7942 4.88918 16.5712 5.63656 17.128C6.38393 17.6848 7.28701 17.9934 8.21883 18.0104C6.63928 19.2609 4.68133 19.9368 2.66675 19.9271C2.31258 19.9271 1.95841 19.9062 1.60425 19.8646C3.58341 21.1354 5.93758 21.875 8.45842 21.875C16.6667 21.875 21.1772 15.0625 21.1772 9.15624C21.1772 8.95832 21.1772 8.77082 21.1667 8.57291C22.0417 7.94791 22.7917 7.15624 23.3959 6.24999V6.24999Z" fill="white"/>
</svg>
